<?xml version="1.0" encoding="UTF-8"?>
<svg id="Layer_1" data-name="Layer 1" xmlns="http://www.w3.org/2000/svg" viewBox="0 0 440 370">
  <defs>
    <style>
      .cls-1 {
        fill: #bbdefb;
      }

      .cls-2 {
        fill: none;
        stroke: #2196f3;
        stroke-linecap: round;
        stroke-miterlimit: 10;
        stroke-width: 20px;
      }
    </style>
  </defs>
  <path class="cls-1" d="M366.19,109.89c.85-4.97,1.3-10.07,1.3-15.28,0-49.49-40.12-89.61-89.61-89.61-34.89,0-65.12,19.94-79.92,49.04-12.23-11.3-28.57-18.22-46.53-18.22-37.88,0-68.58,30.7-68.58,68.58,0,2.3,.12,4.57,.34,6.81-.63-.02-1.25-.05-1.88-.05-40.33,0-73.03,32.7-73.03,73.03s32.7,73.03,73.03,73.03H358.49c40.8,0,73.87-33.07,73.87-73.87,0-38.19-28.99-69.61-66.16-73.47Z"/>
  <path class="cls-2" d="M188.81,152.44c5.03-18.54,21.98-32.18,42.12-32.18,24.1,0,43.64,19.54,43.64,43.64s-19.54,43.64-43.64,43.64H110.75"/>
  <path class="cls-2" d="M254.79,320.38c7.66,20.23,27.21,34.62,50.13,34.62,29.59,0,53.58-23.99,53.58-53.58s-23.99-53.58-53.58-53.58H89.72"/>
  <path class="cls-2" d="M126.45,334.21c5.16,10.76,16.16,18.2,28.9,18.2,17.69,0,32.03-14.34,32.03-32.03s-14.34-32.03-32.03-32.03H68.04"/>
</svg>